<svg width="80" height="80" viewBox="0 0 80 80" fill="none" xmlns="http://www.w3.org/2000/svg">
<path d="M69.064 62.9L57.064 69.7C56.464 70.1 55.564 70.1 54.964 69.7L43.064 62.9C42.564 62.6 42.564 62 43.064 61.8L45.864 60.2C46.064 60.1 46.264 60.1 46.464 60.2L53.764 64.3C54.464 64.7 55.264 64.9 56.064 64.9C56.864 64.9 57.664 64.7 58.364 64.3L65.664 60.2C65.864 60.1 66.064 60.1 66.264 60.2L69.064 61.8C69.564 62 69.564 62.6 69.064 62.9ZM69.064 55.2L57.064 62C56.464 62.4 55.564 62.4 54.964 62L43.064 55.2C42.564 54.9 42.564 54.3 43.064 54.1L45.864 52.5C46.064 52.4 46.264 52.4 46.464 52.5L53.764 56.6C54.464 57 55.264 57.2 56.064 57.2C56.864 57.2 57.664 57 58.364 56.6L65.664 52.5C65.864 52.4 66.064 52.4 66.264 52.5L69.064 54.1C69.564 54.3 69.564 54.9 69.064 55.2ZM55.064 54.4L43.064 47.6C42.564 47.3 42.564 46.7 43.064 46.5L55.064 39.7C55.664 39.3 56.564 39.3 57.164 39.7L69.164 46.5C69.664 46.8 69.664 47.4 69.164 47.6L57.164 54.4C56.564 54.7 55.664 54.7 55.064 54.4Z" fill="white" stroke="white"/>
<path d="M41.5639 50.5C42.0639 50.2 42.0639 49.6 41.5639 49.4L38.7639 47.8H38.6639V46.5C38.6639 46.5 38.6639 44.8 40.1639 43.9C40.5639 43.7 41.3639 43.3 42.2639 42.8C41.8639 42.6 41.4639 42.4 41.0639 42.3C39.2639 41.4 36.6639 40.5 35.8639 38.2C35.3639 37 35.6639 35.7 36.2639 34.6C37.3639 33.5 38.3639 32.5 39.2639 31.1C39.4639 30.7 39.6639 30.5 39.8639 30.1C42.3639 26.5 42.6639 21.6 41.2639 17.5C39.7639 13.1 35.8639 10.1 31.0639 10H30.3639C25.5639 10.1 21.5639 13.1 20.1639 17.5C18.6639 21.7 19.0639 26.5 21.5639 30.1C21.6639 30.5 21.9639 30.7 22.1639 31.1C23.0639 32.5 24.1639 33.4 25.1639 34.6C25.6639 35.7 25.8639 36.9 25.5639 38.2C24.8639 40.4 22.2639 41.4 20.3639 42.3C16.1639 44.1 10.9639 46.7 10.1639 51.8C9.26391 56 12.1639 60.2 16.5639 60.2H38.6639L41.5639 58.3C42.0639 58 42.0639 57.4 41.5639 57.2L38.7639 55.6H38.6639V52.4L41.5639 50.5Z" fill="white" stroke="white"/>
</svg>
