<svg width="80" height="80" viewBox="0 0 80 80" fill="none" xmlns="http://www.w3.org/2000/svg">
<g clip-path="url(#clip0_26_642)">
<path d="M77.6556 11.9544C77.6913 9.81913 76.9181 7.85023 75.4785 6.41063C74.6973 5.62963 73.431 5.62963 72.65 6.41073C71.869 7.19183 71.8689 8.45813 72.65 9.23913C73.3163 9.90533 73.6736 10.8458 73.6563 11.8875C73.6397 12.8813 73.2635 13.8409 72.65 14.4544C71.3775 15.7269 58.693 26.863 48.7865 35.5278L46.3585 33.1C53.5905 24.8253 62.5653 14.5936 66.0757 10.7086L66.8743 11.5073C67.6554 12.2884 68.9218 12.2885 69.7027 11.5075C70.4839 10.7265 70.484 9.46023 69.703 8.67913L67.4349 6.41083C67.0599 6.03573 66.5511 5.82493 66.0207 5.82493H66.0206C65.4901 5.82493 64.9815 6.03563 64.6064 6.41063C63.3893 7.62763 55.9446 16.0831 49.2272 23.7487C47.4207 21.0144 45.0078 18.6622 42.1377 16.8566C37.9428 14.2175 33.0522 12.8794 27.6015 12.8794C26.4024 12.8794 25.2161 12.955 24.0758 13.1043C22.9805 13.2477 22.2089 14.2517 22.3522 15.347C22.4956 16.4422 23.4995 17.2138 24.5948 17.0705C25.5637 16.9437 26.5753 16.8794 27.6014 16.8794C35.9008 16.8794 42.8626 20.6002 46.4728 26.894C43.104 30.7435 40.2096 34.0591 38.8138 35.6589C36.322 35.9984 34.4627 37.0181 33.1517 38.7667C31.9328 40.3924 31.3985 42.334 30.8329 44.3896C30.1509 46.8682 29.4457 49.4312 27.4346 51.4422C26.8625 52.0142 26.6914 52.8744 27.001 53.6218C27.3106 54.3692 28.0399 54.8565 28.8488 54.8565C34.2313 54.8565 38.4974 53.7092 41.5287 51.4466C44.2604 49.4075 45.8887 46.5125 46.2737 43.0361C51.427 38.5354 73.6302 19.131 75.4784 17.2828C76.828 15.9333 77.6216 13.9911 77.6556 11.9544ZM45.7683 38.1666C45.1673 38.6917 44.5847 39.2007 44.0245 39.6898L42.1984 37.8638C42.6871 37.3037 43.196 36.7206 43.721 36.1194L45.7683 38.1666ZM39.136 48.2411C37.5628 49.4155 35.4692 50.1981 32.8851 50.5814C33.7644 48.8133 34.2577 47.0206 34.6896 45.4507C35.6166 42.0819 36.1812 40.3911 38.4654 39.7877L42.1583 43.4805C41.7517 45.4463 40.74 47.0438 39.136 48.2411Z" fill="white" stroke="white"/>
<path d="M17.8311 18.9959C18.1224 18.9959 18.4183 18.9319 18.6982 18.797C18.8777 18.7104 19.0621 18.6253 19.2461 18.5442C20.2566 18.0981 20.7142 16.9173 20.2681 15.9068C19.822 14.8964 18.6413 14.4388 17.6307 14.8848C17.406 14.984 17.1807 15.088 16.961 15.1939C15.9661 15.6736 15.5484 16.8691 16.028 17.864C16.3728 18.579 17.0871 18.9959 17.8311 18.9959Z" fill="white" stroke="white"/>
<path d="M32.2838 57.0789C31.1803 57.0681 30.2739 57.9518 30.2614 59.0562C30.1751 66.7449 29.0144 70.175 22.365 70.175C18.6374 70.175 14.7254 67.4481 11.6322 62.6937C8.22154 57.451 6.34314 50.6443 6.34314 43.5274C6.34314 34.2881 9.13314 26.6005 14.1992 21.8809C15.0074 21.128 15.0522 19.8624 14.2993 19.0542C13.5464 18.246 12.2808 18.2012 11.4726 18.9541C8.48854 21.7342 6.17964 25.3464 4.60994 29.6904C3.10574 33.853 2.34314 38.5085 2.34314 43.5274C2.34314 51.4095 4.45144 58.991 8.27944 64.875C12.1245 70.7854 17.2586 74.1751 22.365 74.1751C27.2491 74.1751 30.6532 72.4564 32.4825 69.0669C34.0531 66.1565 34.2241 62.3968 34.2611 59.1012C34.2735 57.9967 33.3883 57.0912 32.2838 57.0789Z" fill="white" stroke="white"/>
<path d="M42.1256 27.4597C42.1256 23.7857 39.1365 20.7966 35.4625 20.7966C31.7884 20.7966 28.7992 23.7857 28.7992 27.4597C28.7992 31.1338 31.7884 34.123 35.4625 34.123C39.1365 34.1229 42.1256 31.1338 42.1256 27.4597ZM32.7992 27.4597C32.7992 25.9912 33.9939 24.7966 35.4625 24.7966C36.931 24.7966 38.1256 25.9912 38.1256 27.4597C38.1256 28.9283 36.931 30.123 35.4625 30.123C33.9939 30.1229 32.7992 28.9282 32.7992 27.4597Z" fill="white" stroke="white"/>
<path d="M19.5825 36.5177C23.2566 36.5177 26.2457 33.5286 26.2457 29.8546C26.2457 26.1805 23.2566 23.1914 19.5825 23.1914C15.9084 23.1914 12.9193 26.1805 12.9193 29.8546C12.9193 33.5286 15.9084 36.5177 19.5825 36.5177ZM19.5825 27.1914C21.051 27.1914 22.2457 28.3861 22.2457 29.8546C22.2457 31.3231 21.051 32.5177 19.5825 32.5177C18.114 32.5177 16.9193 31.3231 16.9193 29.8546C16.9193 28.3861 18.1141 27.1914 19.5825 27.1914Z" fill="white" stroke="white"/>
<path d="M21.1416 45.1638C21.1416 41.4897 18.1525 38.5005 14.4784 38.5005C10.8043 38.5005 7.81519 41.4897 7.81519 45.1638C7.81519 48.8378 10.8043 51.8269 14.4784 51.8269C18.1525 51.8269 21.1416 48.8378 21.1416 45.1638ZM14.4784 47.827C13.0099 47.827 11.8152 46.6323 11.8152 45.1638C11.8152 43.6952 13.0099 42.5005 14.4784 42.5005C15.9469 42.5005 17.1416 43.6952 17.1416 45.1638C17.1416 46.6322 15.9469 47.827 14.4784 47.827Z" fill="white" stroke="white"/>
<path d="M21.4791 67.4175C25.1532 67.4175 28.1424 64.4284 28.1424 60.7544C28.1424 57.0804 25.1532 54.0913 21.4791 54.0913C17.8051 54.0913 14.816 57.0804 14.816 60.7544C14.816 64.4284 17.8051 67.4175 21.4791 67.4175ZM21.4791 58.0913C22.9477 58.0913 24.1424 59.2859 24.1424 60.7544C24.1424 62.2229 22.9477 63.4175 21.4791 63.4175C20.0107 63.4175 18.816 62.2229 18.816 60.7544C18.816 59.2859 20.0107 58.0913 21.4791 58.0913Z" fill="white" stroke="white"/>
</g>
<defs>
<clipPath id="clip0_26_642">
<rect width="80" height="80" fill="white"/>
</clipPath>
</defs>
</svg>
