<svg width="80" height="80" viewBox="0 0 80 80" fill="none" xmlns="http://www.w3.org/2000/svg">
<path d="M16.6667 23.3334H10M16.6667 36.6667H10M66.6667 50H10M50 63.3334H10M70 23.3334H63.3333M70 36.6667H63.3333M35.3333 36.6667H44.6667C46.5337 36.6667 47.467 36.6667 48.18 36.3034C48.8073 35.9837 49.317 35.474 49.6367 34.8467C50 34.1337 50 33.2002 50 31.3334V22C50 20.1332 50 19.1998 49.6367 18.4867C49.317 17.8595 48.8073 17.3496 48.18 17.03C47.467 16.6667 46.5337 16.6667 44.6667 16.6667H35.3333C33.4663 16.6667 32.5331 16.6667 31.82 17.03C31.1928 17.3496 30.6829 17.8595 30.3633 18.4867C30 19.1998 30 20.1332 30 22V31.3334C30 33.2002 30 34.1337 30.3633 34.8467C30.6829 35.474 31.1928 35.9837 31.82 36.3034C32.5331 36.6667 33.4663 36.6667 35.3333 36.6667Z" stroke="white" stroke-width="2" stroke-linecap="round" stroke-linejoin="round"/>
</svg>
