<svg width="150" height="150" viewBox="0 0 150 150" fill="none" xmlns="http://www.w3.org/2000/svg">
<g clip-path="url(#clip0_22_210)">
<rect width="150" height="150" fill="#1A1A1A"/>
<path d="M143.75 0H125C121.548 0 118.75 2.79814 118.75 6.2499V12.4998H31.2501V6.2499C31.2501 2.79814 28.4517 0 24.9999 0H6.2499C2.79814 0 0 2.79814 0 6.2499V49.9998C0 53.4519 2.79814 56.25 6.2499 56.25V143.75C6.2499 147.202 9.04805 150 12.4998 150C15.9519 150 18.75 147.202 18.75 143.75V56.25H24.9999C28.4517 56.25 31.2498 53.4519 31.2498 50.0001V43.7502H118.75V50.0001C118.75 53.4519 121.548 56.25 125 56.25H131.25V143.75C131.25 147.202 134.048 150 137.5 150C140.952 150 143.75 147.202 143.75 143.75V56.25C147.202 56.25 150 53.4519 150 50.0001V6.2499C150 2.79814 147.202 0 143.75 0ZM131.25 12.5001H137.5V43.7502H131.25V37.5V18.75V12.5001ZM18.75 43.7499H12.5001V12.5001H18.75V18.75V37.5V43.7499ZM31.2501 31.2501V24.9999H118.75V31.2498L31.2501 31.2501Z" fill="white" stroke="white" stroke-width="0.390625"/>
<path d="M106.25 87.5001H43.7499C40.2981 87.5001 37.5 90.2983 37.5 93.75V112.5V143.75C37.5 147.202 40.2981 150 43.7499 150C47.2017 150 49.9998 147.202 49.9998 143.75V118.75H99.9999V143.75C99.9999 147.202 102.798 150 106.25 150C109.702 150 112.5 147.202 112.5 143.75V112.5V93.75C112.5 90.2983 109.702 87.5001 106.25 87.5001ZM50.0001 99.9999H100V106.25H50.0001V99.9999Z" fill="white" stroke="white" stroke-width="0.390625"/>
</g>
<defs>
<clipPath id="clip0_22_210">
<rect width="150" height="150" fill="white"/>
</clipPath>
</defs>
</svg>
