<svg width="80" height="80" viewBox="0 0 80 80" fill="none" xmlns="http://www.w3.org/2000/svg">
<g clip-path="url(#clip0_26_572)">
<path d="M40.285 -0.0275269C23.8875 -0.0275269 10 13.94 10 30.4825C10 47.8075 26.0975 65.525 36.925 77.9775C36.9675 78.0275 38.7175 79.97 40.8725 79.97H41.0625C43.22 79.97 44.9575 78.0275 45 77.9775C55.16 66.2975 70 47.035 70 30.4825C70 13.9375 59.1675 -0.0275269 40.285 -0.0275269ZM41.2875 74.6225C41.2 74.71 41.0725 74.8075 40.96 74.89C40.845 74.81 40.72 74.71 40.6275 74.6225L39.32 73.1175C29.055 61.3425 14.9975 45.215 14.9975 30.48C14.9975 16.65 26.5775 4.96747 40.2825 4.96747C57.355 4.96747 64.9975 17.78 64.9975 30.48C64.9975 41.665 57.02 56.52 41.2875 74.6225ZM40.0875 15.11C31.805 15.11 25.0875 21.825 25.0875 30.11C25.0875 38.395 31.805 45.11 40.0875 45.11C48.37 45.11 55.0875 38.3925 55.0875 30.11C55.0875 21.8275 48.3725 15.11 40.0875 15.11ZM40.0875 40.11C34.5725 40.11 29.9725 35.515 29.9725 30C29.9725 24.485 34.4575 20 39.9725 20C45.49 20 49.9725 24.485 49.9725 30C49.975 35.515 45.605 40.11 40.0875 40.11Z" fill="white" stroke="white"/>
</g>
<defs>
<clipPath id="clip0_26_572">
<rect width="80" height="80" fill="white"/>
</clipPath>
</defs>
</svg>
