<svg width="80" height="80" viewBox="0 0 80 80" fill="none" xmlns="http://www.w3.org/2000/svg">
<g clip-path="url(#clip0_31_276)">
<path d="M20 50H26.6667M10 36.6667H70M10 26.6667H70M40 50H53.3333M20.6667 63.3333H59.3333C63.067 63.3333 64.934 63.3333 66.36 62.6067C67.6143 61.9677 68.6343 60.9477 69.2733 59.6933C70 58.2673 70 56.4003 70 52.6667V27.3333C70 23.5997 70 21.7328 69.2733 20.3067C68.6343 19.0523 67.6143 18.0324 66.36 17.3933C64.934 16.6667 63.067 16.6667 59.3333 16.6667H20.6667C16.933 16.6667 15.0661 16.6667 13.6401 17.3933C12.3856 18.0324 11.3658 19.0523 10.7266 20.3067C10 21.7328 10 23.5996 10 27.3333V52.6667C10 56.4003 10 58.2673 10.7266 59.6933C11.3658 60.9477 12.3856 61.9677 13.6401 62.6067C15.0661 63.3333 16.933 63.3333 20.6667 63.3333Z" stroke="white" stroke-width="2" stroke-linecap="round" stroke-linejoin="round"/>
</g>
<defs>
<clipPath id="clip0_31_276">
<rect width="80" height="80" fill="white"/>
</clipPath>
</defs>
</svg>
