<svg width="38" height="38" viewBox="0 0 38 38" fill="none" xmlns="http://www.w3.org/2000/svg">
<path fill-rule="evenodd" clip-rule="evenodd" d="M36.1 7.6C36.1 8.10391 35.8998 8.58718 35.5435 8.9435C35.1872 9.29982 34.7039 9.5 34.2 9.5H3.79999C3.29608 9.5 2.81281 9.29982 2.45649 8.9435C2.10017 8.58718 1.89999 8.10391 1.89999 7.6C1.89999 7.09609 2.10017 6.61282 2.45649 6.2565C2.81281 5.90018 3.29608 5.7 3.79999 5.7H34.2C34.7039 5.7 35.1872 5.90018 35.5435 6.2565C35.8998 6.61282 36.1 7.09609 36.1 7.6ZM36.1 19C36.1 19.5039 35.8998 19.9872 35.5435 20.3435C35.1872 20.6998 34.7039 20.9 34.2 20.9H3.79999C3.29608 20.9 2.81281 20.6998 2.45649 20.3435C2.10017 19.9872 1.89999 19.5039 1.89999 19C1.89999 18.4961 2.10017 18.0128 2.45649 17.6565C2.81281 17.3002 3.29608 17.1 3.79999 17.1H34.2C34.7039 17.1 35.1872 17.3002 35.5435 17.6565C35.8998 18.0128 36.1 18.4961 36.1 19ZM34.2 32.3C34.7039 32.3 35.1872 32.0998 35.5435 31.7435C35.8998 31.3872 36.1 30.9039 36.1 30.4C36.1 29.8961 35.8998 29.4128 35.5435 29.0565C35.1872 28.7002 34.7039 28.5 34.2 28.5H3.79999C3.29608 28.5 2.81281 28.7002 2.45649 29.0565C2.10017 29.4128 1.89999 29.8961 1.89999 30.4C1.89999 30.9039 2.10017 31.3872 2.45649 31.7435C2.81281 32.0998 3.29608 32.3 3.79999 32.3H34.2Z" fill="white" stroke="white"/>
</svg>
