<svg width="46" height="46" viewBox="0 0 46 46" fill="none" xmlns="http://www.w3.org/2000/svg">
<path d="M40.75 13.5278V5.75M40.75 5.75H32.9722M40.75 5.75L29.0833 17.4167M35.8889 40.75C19.2436 40.75 5.75 27.2563 5.75 10.6111C5.75 9.86013 5.77747 9.11556 5.83145 8.37836C5.8934 7.53232 5.92438 7.1093 6.14608 6.72422C6.32972 6.4053 6.65514 6.10284 6.98663 5.94299C7.38685 5.75 7.85366 5.75 8.78724 5.75H14.2653C15.0504 5.75 15.443 5.75 15.7795 5.87921C16.0767 5.99335 16.3414 6.17873 16.5503 6.41908C16.7867 6.69117 16.9208 7.06009 17.1891 7.79791L19.4566 14.0334C19.7687 14.8919 19.9248 15.3211 19.8984 15.7283C19.875 16.0874 19.7523 16.4329 19.5443 16.7265C19.3083 17.0594 18.9167 17.2944 18.1334 17.7644L15.4722 19.3611C17.8092 24.5117 21.9863 28.6942 27.1389 31.0278L28.7357 28.3666C29.2056 27.5832 29.4405 27.1916 29.7734 26.9557C30.067 26.7477 30.4126 26.625 30.7717 26.6016C31.1789 26.5752 31.6082 26.7313 32.4667 27.0434L38.7021 29.3108C39.4398 29.5792 39.8089 29.7133 40.0809 29.9498C40.3212 30.1586 40.5068 30.4232 40.6207 30.7206C40.75 31.0569 40.75 31.4495 40.75 32.2347V37.7128C40.75 38.6463 40.75 39.1132 40.5569 39.5133C40.3971 39.8449 40.0947 40.1704 39.7758 40.3539C39.3906 40.5756 38.9677 40.6065 38.1217 40.6685C37.3844 40.7226 36.6398 40.75 35.8889 40.75Z" stroke="white" stroke-width="2" stroke-linecap="round" stroke-linejoin="round"/>
</svg>
