<svg width="80" height="80" viewBox="0 0 80 80" fill="none" xmlns="http://www.w3.org/2000/svg">
<path d="M26.8148 38.279L27.1134 35.797C25.7616 35.6343 24.5282 36.5833 24.339 37.9317L26.8148 38.279ZM19.4634 37.3943L21.9391 37.7417C22.0324 37.0767 21.8542 36.402 21.4447 35.87C21.0352 35.3377 20.4287 34.9927 19.762 34.9123L19.4634 37.3943ZM23.8701 59.2723L21.3943 58.925C21.3011 59.59 21.4793 60.2647 21.8888 60.7967C22.2983 61.329 22.9047 61.674 23.5715 61.7543L23.8701 59.2723ZM16.5187 58.3877L16.22 60.8697C17.5719 61.0323 18.8053 60.0833 18.9944 58.735L16.5187 58.3877ZM19.8495 26.112L29.6515 27.2913L30.2488 22.3271L20.4468 21.1478L19.8495 26.112ZM33.8707 32.1551C33.7174 33.2488 33.6194 33.9357 33.5077 34.4527C33.4021 34.943 33.3199 35.0933 33.2876 35.1453L37.5354 37.7827C37.9931 37.0453 38.2301 36.2723 38.3954 35.5077C38.5544 34.77 38.6791 33.8707 38.8224 32.8496L33.8707 32.1551ZM26.5162 40.761C27.6428 40.8967 28.8638 41.044 29.9251 41.125C30.8607 41.1963 32.0916 41.259 33.0205 41.027L31.8085 36.176C31.8638 36.162 31.7754 36.1877 31.4452 36.1897C31.1495 36.1917 30.7683 36.1747 30.3051 36.1393C29.3746 36.0683 28.2704 35.936 27.1134 35.797L26.5162 40.761ZM33.2876 35.1453C32.9966 35.614 32.4804 36.008 31.8085 36.176L33.0205 41.027C34.8797 40.5623 36.5194 39.419 37.5354 37.7827L33.2876 35.1453ZM29.6515 27.2913C30.8249 27.4325 31.5891 27.5257 32.1705 27.6333C32.7338 27.7376 32.949 27.8267 33.0524 27.8818L35.4027 23.4687C34.6541 23.0699 33.8724 22.8634 33.0808 22.7169C32.3073 22.5736 31.3589 22.4607 30.2488 22.3271L29.6515 27.2913ZM38.8224 32.8496C38.9654 31.8288 39.0931 30.9295 39.1427 30.1779C39.1941 29.4008 39.1794 28.5882 38.9357 27.7517L34.1351 29.1501C34.1477 29.1926 34.1867 29.3483 34.1537 29.8485C34.1191 30.3741 34.0241 31.061 33.8707 32.1551L38.8224 32.8496ZM33.0524 27.8818C33.6301 28.1895 33.9934 28.6634 34.1351 29.1501L38.9357 27.7517C38.3947 25.8943 37.0977 24.3714 35.4027 23.4687L33.0524 27.8818ZM14.3175 29.9012C14.4709 28.8075 14.5688 28.1205 14.6804 27.6035C14.7862 27.1133 14.8684 26.963 14.9006 26.9111L10.6529 24.2735C10.1951 25.0108 9.95802 25.784 9.79299 26.5485C9.63372 27.2863 9.50915 28.1855 9.36592 29.2067L14.3175 29.9012ZM20.4468 21.1478C19.3365 21.0142 18.3887 20.899 17.6019 20.8544C16.7951 20.8088 15.9893 20.8242 15.1677 21.0295L16.3797 25.8803C16.5073 25.8485 16.7469 25.814 17.3192 25.8464C17.9115 25.88 18.6764 25.9708 19.8495 26.112L20.4468 21.1478ZM14.9006 26.9111C15.1916 26.4425 15.7078 26.0482 16.3797 25.8803L15.1677 21.0295C13.3086 21.494 11.6688 22.6374 10.6529 24.2735L14.9006 26.9111ZM9.36592 29.2067C9.22272 30.2276 9.09502 31.1268 9.04539 31.8785C8.99409 32.6555 9.00885 33.468 9.25252 34.3047L14.053 32.9062C14.0406 32.8637 14.0015 32.708 14.0345 32.2078C14.0692 31.6823 14.164 30.9953 14.3175 29.9012L9.36592 29.2067ZM19.762 34.9123C18.605 34.7733 17.501 34.64 16.5821 34.4883C16.1245 34.4127 15.7521 34.339 15.4679 34.2677C15.1487 34.1873 15.0767 34.143 15.1358 34.1747L12.7854 38.5877C13.6324 39.0387 14.8487 39.27 15.7683 39.4217C16.8169 39.5947 18.0382 39.741 19.1647 39.8767L19.762 34.9123ZM9.25252 34.3047C9.79359 36.162 11.0905 37.685 12.7854 38.5877L15.1358 34.1747C14.5581 33.867 14.1948 33.393 14.053 32.9062L9.25252 34.3047ZM23.4839 70.5547L13.682 69.3753L13.0847 74.3397L22.8866 75.519L23.4839 70.5547ZM29.016 66.7653C28.8626 67.8593 28.7646 68.5463 28.653 69.0633C28.5472 69.5533 28.4651 69.7037 28.4328 69.7557L32.6806 72.393C33.1384 71.656 33.3754 70.8827 33.5404 70.118C33.6997 69.3803 33.8244 68.481 33.9674 67.46L29.016 66.7653ZM22.8866 75.519C23.997 75.6523 24.9448 75.7677 25.7316 75.8123C26.5384 75.858 27.3442 75.8423 28.1658 75.6373L26.9537 70.7863C26.8262 70.8183 26.5866 70.8527 26.0143 70.8203C25.422 70.7867 24.6571 70.696 23.4839 70.5547L22.8866 75.519ZM28.4328 69.7557C28.1419 70.2243 27.6256 70.6183 26.9537 70.7863L28.1658 75.6373C30.0248 75.1727 31.6647 74.0293 32.6806 72.393L28.4328 69.7557ZM23.5715 61.7543C24.7285 61.8933 25.8325 62.0267 26.7514 62.1783C27.2089 62.254 27.5814 62.3277 27.8655 62.399C28.1848 62.4793 28.2568 62.5237 28.1977 62.492L30.5481 58.079C29.701 57.628 28.4847 57.3967 27.5652 57.245C26.5166 57.072 25.2953 56.9257 24.1688 56.79L23.5715 61.7543ZM33.9674 67.46C34.1107 66.439 34.2384 65.54 34.2881 64.7883C34.3394 64.011 34.3247 63.1987 34.0811 62.362L29.2805 63.7603C29.2929 63.803 29.3319 63.9587 29.2989 64.459C29.2642 64.9843 29.1695 65.6713 29.016 66.7653L33.9674 67.46ZM28.1977 62.492C28.7753 62.7997 29.1387 63.2737 29.2805 63.7603L34.0811 62.362C33.5397 60.5047 32.243 58.9817 30.5481 58.079L28.1977 62.492ZM9.46269 64.5117C9.61612 63.4177 9.71405 62.731 9.82565 62.214C9.93145 61.7237 10.0136 61.5733 10.0459 61.5213L5.79812 58.884C5.34032 59.6213 5.10325 60.3943 4.93822 61.159C4.77895 61.8967 4.65439 62.796 4.51115 63.817L9.46269 64.5117ZM16.8173 55.9057C15.6907 55.77 14.4696 55.6227 13.4084 55.5417C12.4727 55.4703 11.2418 55.4077 10.3129 55.6397L11.525 60.4907C11.4696 60.5047 11.5581 60.479 11.8883 60.477C12.184 60.475 12.5652 60.492 13.0284 60.5273C13.9588 60.5983 15.0631 60.7307 16.22 60.8697L16.8173 55.9057ZM10.0459 61.5213C10.3368 61.0527 10.8531 60.6587 11.525 60.4907L10.3129 55.6397C8.45385 56.1043 6.81399 57.2477 5.79812 58.884L10.0459 61.5213ZM4.51115 63.817C4.36795 64.838 4.24025 65.737 4.19062 66.4887C4.13932 67.266 4.15409 68.0783 4.39775 68.915L9.19822 67.5167C9.18582 67.474 9.14675 67.3183 9.17975 66.8183C9.21445 66.2927 9.30922 65.6057 9.46269 64.5117L4.51115 63.817ZM13.682 69.3753C12.5086 69.234 11.7443 69.141 11.163 69.0333C10.5996 68.929 10.3845 68.84 10.281 68.785L7.93059 73.198C8.67935 73.5967 9.46115 73.8033 10.2527 73.9497C11.0262 74.093 11.9746 74.206 13.0847 74.3397L13.682 69.3753ZM4.39775 68.915C4.93882 70.7723 6.23572 72.2953 7.93059 73.198L10.281 68.785C9.70335 68.4773 9.33999 68.0033 9.19822 67.5167L4.39775 68.915ZM18.9944 58.735L21.9391 37.7417L16.9876 37.0473L14.0429 58.0403L18.9944 58.735ZM24.339 37.9317L21.3943 58.925L26.3459 59.6193L29.2906 38.6263L24.339 37.9317Z" fill="white"/>
<path d="M20.1482 23.6299L20.4468 21.1478M20.4468 21.1478L30.2488 22.3271M20.4468 21.1478L19.8495 26.112M20.4468 21.1478C19.3365 21.0142 18.3887 20.899 17.6019 20.8544C16.7951 20.8088 15.9893 20.8242 15.1677 21.0295M29.9501 24.8092L29.6515 27.2913M29.6515 27.2913L19.8495 26.112M29.6515 27.2913L30.2488 22.3271M29.6515 27.2913C30.8249 27.4325 31.5891 27.5257 32.1705 27.6333C32.7338 27.7376 32.949 27.8267 33.0524 27.8818M35.4114 36.464L37.5354 37.7827M37.5354 37.7827L33.2876 35.1453M37.5354 37.7827C37.9931 37.0453 38.2301 36.2723 38.3954 35.5077C38.5544 34.77 38.6791 33.8707 38.8224 32.8496M37.5354 37.7827C36.5194 39.419 34.8797 40.5623 33.0205 41.027M27.1134 35.797L26.8148 38.279L24.339 37.9317M27.1134 35.797C25.7616 35.6343 24.5282 36.5833 24.339 37.9317M27.1134 35.797C28.2704 35.936 29.3746 36.0683 30.3051 36.1393C30.7683 36.1747 31.1495 36.1917 31.4452 36.1897C31.7754 36.1877 31.8638 36.162 31.8085 36.176M27.1134 35.797L26.5162 40.761C27.6428 40.8967 28.8638 41.044 29.9251 41.125C30.8607 41.1963 32.0916 41.259 33.0205 41.027M24.339 37.9317L21.3943 58.925M24.339 37.9317L29.2906 38.6263L26.3459 59.6193L21.3943 58.925M32.4145 38.6013L31.8085 36.176M31.8085 36.176L33.0205 41.027M31.8085 36.176C32.4804 36.008 32.9966 35.614 33.2876 35.1453M34.2277 25.6753L35.4027 23.4687M35.4027 23.4687L33.0524 27.8818M35.4027 23.4687C34.6541 23.0699 33.8724 22.8634 33.0808 22.7169C32.3073 22.5736 31.3589 22.4607 30.2488 22.3271M35.4027 23.4687C37.0977 24.3714 38.3947 25.8943 38.9357 27.7517M36.5354 28.4509L34.1351 29.1501M34.1351 29.1501L38.9357 27.7517M34.1351 29.1501C34.1477 29.1926 34.1867 29.3483 34.1537 29.8485C34.1191 30.3741 34.0241 31.061 33.8707 32.1551M34.1351 29.1501C33.9934 28.6634 33.6301 28.1895 33.0524 27.8818M12.7768 25.5923L10.6529 24.2735M10.6529 24.2735L14.9006 26.9111M10.6529 24.2735C10.1951 25.0108 9.95802 25.784 9.79299 26.5485C9.63372 27.2863 9.50915 28.1855 9.36592 29.2067M10.6529 24.2735C11.6688 22.6374 13.3086 21.494 15.1677 21.0295M15.7737 23.4549L15.1677 21.0295M15.1677 21.0295L16.3797 25.8803M11.6528 33.6053L9.25252 34.3047M9.25252 34.3047C9.00885 33.468 8.99409 32.6555 9.04539 31.8785C9.09502 31.1268 9.22272 30.2276 9.36592 29.2067M9.25252 34.3047L14.053 32.9062M9.25252 34.3047C9.79359 36.162 11.0905 37.685 12.7854 38.5877M21.9391 37.7417L19.4634 37.3943L19.762 34.9123M21.9391 37.7417C22.0324 37.0767 21.8542 36.402 21.4447 35.87C21.0352 35.3377 20.4287 34.9927 19.762 34.9123M21.9391 37.7417L18.9944 58.735M21.9391 37.7417L16.9876 37.0473L14.0429 58.0403L18.9944 58.735M19.762 34.9123C18.605 34.7733 17.501 34.64 16.5821 34.4883C16.1245 34.4127 15.7521 34.339 15.4679 34.2677C15.1487 34.1873 15.0767 34.143 15.1358 34.1747M19.762 34.9123L19.1647 39.8767C18.0382 39.741 16.8169 39.5947 15.7683 39.4217C14.8487 39.27 13.6324 39.0387 12.7854 38.5877M13.9606 36.381L15.1358 34.1747M15.1358 34.1747L12.7854 38.5877M15.1358 34.1747C14.5581 33.867 14.1948 33.393 14.053 32.9062M23.1853 73.0367L22.8866 75.519M22.8866 75.519L13.0847 74.3397M22.8866 75.519L23.4839 70.5547M22.8866 75.519C23.997 75.6523 24.9448 75.7677 25.7316 75.8123C26.5384 75.858 27.3442 75.8423 28.1658 75.6373M13.3833 71.8573L13.682 69.3753M13.682 69.3753L23.4839 70.5547M13.682 69.3753L13.0847 74.3397M13.682 69.3753C12.5086 69.234 11.7443 69.141 11.163 69.0333C10.5996 68.929 10.3845 68.84 10.281 68.785M31.4918 67.1127L33.9674 67.46M33.9674 67.46C33.8244 68.481 33.6997 69.3803 33.5404 70.118C33.3754 70.8827 33.1384 71.656 32.6806 72.393M33.9674 67.46L29.016 66.7653M33.9674 67.46C34.1107 66.439 34.2384 65.54 34.2881 64.7883C34.3394 64.011 34.3247 63.1987 34.0811 62.362M30.5567 71.0743L28.4328 69.7557M28.4328 69.7557C28.4651 69.7037 28.5472 69.5533 28.653 69.0633C28.7646 68.5463 28.8626 67.8593 29.016 66.7653M28.4328 69.7557L32.6806 72.393M28.4328 69.7557C28.1419 70.2243 27.6256 70.6183 26.9537 70.7863M27.5597 73.2117L28.1658 75.6373M28.1658 75.6373L26.9537 70.7863M28.1658 75.6373C30.0248 75.1727 31.6647 74.0293 32.6806 72.393M21.3943 58.925L23.8701 59.2723L23.5715 61.7543M21.3943 58.925C21.3011 59.59 21.4793 60.2647 21.8888 60.7967C22.2983 61.329 22.9047 61.674 23.5715 61.7543M23.5715 61.7543C24.7285 61.8933 25.8325 62.0267 26.7514 62.1783C27.2089 62.254 27.5814 62.3277 27.8655 62.399C28.1848 62.4793 28.2568 62.5237 28.1977 62.492M23.5715 61.7543L24.1688 56.79C25.2953 56.9257 26.5166 57.072 27.5652 57.245C28.4847 57.3967 29.701 57.628 30.5481 58.079M29.3729 60.2857L30.5481 58.079M30.5481 58.079L28.1977 62.492M30.5481 58.079C32.243 58.9817 33.5397 60.5047 34.0811 62.362M31.6807 63.0613L29.2805 63.7603M29.2805 63.7603L34.0811 62.362M29.2805 63.7603C29.2929 63.803 29.3319 63.9587 29.2989 64.459C29.2642 64.9843 29.1695 65.6713 29.016 66.7653M29.2805 63.7603C29.1387 63.2737 28.7753 62.7997 28.1977 62.492M6.98692 64.1643L9.46269 64.5117M9.46269 64.5117C9.61612 63.4177 9.71405 62.731 9.82565 62.214C9.93145 61.7237 10.0136 61.5733 10.0459 61.5213M9.46269 64.5117L4.51115 63.817M9.46269 64.5117C9.30922 65.6057 9.21445 66.2927 9.17975 66.8183C9.14675 67.3183 9.18582 67.474 9.19822 67.5167M7.92199 60.2027L5.79812 58.884M5.79812 58.884L10.0459 61.5213M5.79812 58.884C5.34032 59.6213 5.10325 60.3943 4.93822 61.159C4.77895 61.8967 4.65439 62.796 4.51115 63.817M5.79812 58.884C6.81399 57.2477 8.45385 56.1043 10.3129 55.6397M16.22 60.8697L16.5187 58.3877L18.9944 58.735M16.22 60.8697C17.5719 61.0323 18.8053 60.0833 18.9944 58.735M16.22 60.8697C15.0631 60.7307 13.9588 60.5983 13.0284 60.5273C12.5652 60.492 12.184 60.475 11.8883 60.477C11.5581 60.479 11.4696 60.5047 11.525 60.4907M16.22 60.8697L16.8173 55.9057C15.6907 55.77 14.4696 55.6227 13.4084 55.5417C12.4727 55.4703 11.2418 55.4077 10.3129 55.6397M10.919 58.0653L10.3129 55.6397M10.3129 55.6397L11.525 60.4907M6.79799 68.2157L4.39775 68.915M4.39775 68.915C4.15409 68.0783 4.13932 67.266 4.19062 66.4887C4.24025 65.737 4.36795 64.838 4.51115 63.817M4.39775 68.915L9.19822 67.5167M4.39775 68.915C4.93882 70.7723 6.23572 72.2953 7.93059 73.198M9.10579 70.9913L7.93059 73.198M7.93059 73.198L10.281 68.785M7.93059 73.198C8.67935 73.5967 9.46115 73.8033 10.2527 73.9497C11.0262 74.093 11.9746 74.206 13.0847 74.3397M19.8495 26.112C18.6764 25.9708 17.9115 25.88 17.3192 25.8464C16.7469 25.814 16.5073 25.8485 16.3797 25.8803M33.8707 32.1551C33.7174 33.2488 33.6194 33.9357 33.5077 34.4527C33.4021 34.943 33.3199 35.0933 33.2876 35.1453M33.8707 32.1551L38.8224 32.8496M38.8224 32.8496C38.9654 31.8288 39.0931 30.9295 39.1427 30.1779C39.1941 29.4008 39.1794 28.5882 38.9357 27.7517M14.3175 29.9012C14.4709 28.8075 14.5688 28.1205 14.6804 27.6035C14.7862 27.1133 14.8684 26.963 14.9006 26.9111M14.3175 29.9012L9.36592 29.2067M14.3175 29.9012C14.164 30.9953 14.0692 31.6823 14.0345 32.2078C14.0015 32.708 14.0406 32.8637 14.053 32.9062M14.9006 26.9111C15.1916 26.4425 15.7078 26.0482 16.3797 25.8803M23.4839 70.5547C24.6571 70.696 25.422 70.7867 26.0143 70.8203C26.5866 70.8527 26.8262 70.8183 26.9537 70.7863M10.0459 61.5213C10.3368 61.0527 10.8531 60.6587 11.525 60.4907M9.19822 67.5167C9.33999 68.0033 9.70335 68.4773 10.281 68.785" stroke="white"/>
<path d="M62.856 40.852L60.4477 41.5224C60.813 42.8347 62.1613 43.613 63.4803 43.2727L62.856 40.852ZM56.0777 42.6003L56.702 45.0214C57.352 44.8537 57.9073 44.4317 58.2427 43.85C58.5783 43.2687 58.666 42.5767 58.486 41.93L56.0777 42.6003ZM57.2557 20.7329L56.6313 18.3121C55.9813 18.4798 55.426 18.9018 55.0907 19.4832C54.755 20.0647 54.6673 20.7566 54.8473 21.4033L57.2557 20.7329ZM50.4773 22.4813L52.8857 21.8109C52.5203 20.4987 51.172 19.7203 49.853 20.0605L50.4773 22.4813ZM59.2047 58.363L68.2427 56.0317L66.994 51.19L57.956 53.5214L59.2047 58.363ZM74.989 44.667C74.7164 43.6874 74.4787 42.828 74.2307 42.1304C73.974 41.409 73.6493 40.6887 73.1227 40.028L69.213 43.1447C69.2527 43.1947 69.3527 43.3363 69.5197 43.8064C69.6953 44.2997 69.8807 44.9604 70.1724 46.0077L74.989 44.667ZM63.4803 43.2727C64.5487 42.9973 65.5613 42.7367 66.4187 42.5567C66.8453 42.467 67.1937 42.406 67.4624 42.3733C67.766 42.3363 67.8313 42.353 67.7527 42.343L68.3813 37.3827C67.438 37.2634 66.2557 37.482 65.3913 37.6633C64.4003 37.8713 63.269 38.1637 62.2317 38.4314L63.4803 43.2727ZM73.1227 40.028C71.951 38.558 70.2407 37.6184 68.3813 37.3827L67.7527 42.343C68.3533 42.4193 68.874 42.7194 69.213 43.1447L73.1227 40.028ZM68.2427 56.0317C69.2633 55.7683 70.1467 55.542 70.8623 55.306C71.5967 55.064 72.327 54.7594 73.0004 54.262L70.0297 50.24C69.965 50.288 69.7997 50.3917 69.297 50.5574C68.775 50.7297 68.079 50.9104 66.994 51.19L68.2427 56.0317ZM70.1724 46.0077C70.4637 47.0554 70.6464 47.7167 70.7507 48.2277C70.85 48.7164 70.835 48.879 70.8287 48.927L75.7823 49.6047C75.8973 48.7647 75.802 47.9767 75.65 47.2297C75.5023 46.5053 75.2617 45.6464 74.989 44.667L70.1724 46.0077ZM73.0004 54.262C74.513 53.1447 75.5267 51.475 75.7823 49.6047L70.8287 48.927C70.7603 49.4254 70.4863 49.903 70.0297 50.24L73.0004 54.262ZM47.577 51.8357C47.8497 52.8153 48.0873 53.6747 48.3357 54.3724C48.5923 55.0937 48.9167 55.814 49.4433 56.4747L53.3533 53.358C53.3133 53.308 53.2137 53.1664 53.0463 52.6967C52.871 52.203 52.6857 51.5424 52.394 50.495L47.577 51.8357ZM57.956 53.5214C56.8713 53.801 56.1743 53.9797 55.6323 54.082C55.112 54.1804 54.9077 54.1717 54.8137 54.1597L54.185 59.12C55.0137 59.225 55.7973 59.139 56.56 58.995C57.3017 58.855 58.184 58.6264 59.2047 58.363L57.956 53.5214ZM49.4433 56.4747C50.615 57.9447 52.3257 58.8843 54.185 59.12L54.8137 54.1597C54.2127 54.0837 53.6923 53.7834 53.3533 53.358L49.4433 56.4747ZM52.394 50.495C52.1023 49.4474 51.92 48.7864 51.8157 48.275C51.716 47.7867 51.731 47.6237 51.7377 47.5757L46.7837 46.898C46.669 47.7383 46.764 48.5263 46.9163 49.2733C47.064 49.9977 47.3047 50.8567 47.577 51.8357L52.394 50.495ZM55.453 40.1797C54.4157 40.4473 53.284 40.7387 52.3177 41.0357C51.8323 41.1847 51.3493 41.3467 50.915 41.5224C50.515 41.684 50.007 41.915 49.5657 42.241L52.5363 46.2627C52.4643 46.316 52.506 46.2724 52.7887 46.158C53.037 46.0577 53.3697 45.943 53.7857 45.815C54.6213 45.5583 55.6337 45.2967 56.702 45.0214L55.453 40.1797ZM51.7377 47.5757C51.8057 47.0777 52.08 46.6 52.5363 46.2627L49.5657 42.241C48.0533 43.358 47.0397 45.028 46.7837 46.898L51.7377 47.5757ZM54.1287 4.97045L45.0907 7.30165L46.3393 12.1432L55.3773 9.81199L54.1287 4.97045ZM65.7563 11.4976C65.4837 10.5181 65.246 9.65865 64.9977 8.96099C64.741 8.23965 64.4167 7.51935 63.89 6.85862L59.98 9.97522C60.02 10.0252 60.1197 10.167 60.287 10.6368C60.4623 11.1302 60.6477 11.791 60.9393 12.8384L65.7563 11.4976ZM55.3773 9.81199C56.462 9.53219 57.159 9.35379 57.701 9.25145C58.2213 9.15315 58.4257 9.16175 58.5197 9.17365L59.1483 4.21332C58.3197 4.10832 57.536 4.19422 56.7733 4.33825C56.0317 4.47825 55.1493 4.70715 54.1287 4.97045L55.3773 9.81199ZM63.89 6.85862C62.7183 5.38872 61.0077 4.44899 59.1483 4.21332L58.5197 9.17365C59.1207 9.24982 59.641 9.54995 59.98 9.97522L63.89 6.85862ZM57.8803 23.1537C58.9177 22.8861 60.0493 22.5948 61.0157 22.2979C61.501 22.1488 61.984 21.9866 62.4183 21.8111C62.8183 21.6494 63.3263 21.4183 63.7677 21.0924L60.797 17.0706C60.869 17.0174 60.8273 17.0611 60.5447 17.1754C60.2963 17.2758 59.9637 17.3905 59.5477 17.5182C58.712 17.7749 57.6997 18.0366 56.6313 18.3121L57.8803 23.1537ZM60.9393 12.8384C61.231 13.886 61.4133 14.5472 61.5177 15.0584C61.6173 15.5468 61.6023 15.7096 61.5957 15.7577L66.5497 16.4352C66.6643 15.5951 66.5693 14.8072 66.417 14.0601C66.2694 13.3358 66.0287 12.4768 65.7563 11.4976L60.9393 12.8384ZM63.7677 21.0924C65.28 19.9753 66.2937 18.3055 66.5497 16.4352L61.5957 15.7577C61.5277 16.2558 61.2533 16.7335 60.797 17.0706L63.7677 21.0924ZM38.3443 18.6664C38.617 19.6459 38.8547 20.5053 39.1027 21.2029C39.3593 21.9243 39.684 22.6446 40.2107 23.3053L44.1203 20.1887C44.0807 20.1387 43.9807 19.997 43.8137 19.5272C43.638 19.0337 43.4527 18.373 43.161 17.3256L38.3443 18.6664ZM49.853 20.0605C48.7847 20.3361 47.772 20.5968 46.9147 20.7767C46.488 20.8663 46.1397 20.9272 45.871 20.96C45.5673 20.9971 45.502 20.9803 45.5807 20.9903L44.952 25.9506C45.8953 26.0701 47.0777 25.8515 47.942 25.6701C48.933 25.462 50.0643 25.1697 51.1017 24.9021L49.853 20.0605ZM40.2107 23.3053C41.3823 24.7752 43.0927 25.715 44.952 25.9506L45.5807 20.9903C44.98 20.9141 44.4593 20.614 44.1203 20.1887L40.2107 23.3053ZM43.161 17.3256C42.8697 16.278 42.687 15.6168 42.5827 15.1056C42.4833 14.6172 42.4983 14.4543 42.5047 14.4063L37.551 13.7287C37.436 14.5688 37.5313 15.3568 37.6833 16.1038C37.831 16.8281 38.0717 17.6871 38.3443 18.6664L43.161 17.3256ZM45.0907 7.30165C44.07 7.56492 43.1867 7.79145 42.471 8.02725C41.7367 8.26935 41.0063 8.57402 40.333 9.07152L43.3037 13.0933C43.3683 13.0455 43.5337 12.9417 44.0363 12.7759C44.5583 12.6039 45.2543 12.4231 46.3393 12.1432L45.0907 7.30165ZM42.5047 14.4063C42.573 13.9082 42.847 13.4305 43.3037 13.0933L40.333 9.07152C38.8203 10.1886 37.8067 11.8584 37.551 13.7287L42.5047 14.4063ZM48.0687 23.1517L53.669 43.271L58.486 41.93L52.8857 21.8109L48.0687 23.1517ZM65.2647 40.1817L59.6643 20.0625L54.8473 21.4033L60.4477 41.5224L65.2647 40.1817Z" fill="white"/>
<path d="M58.5803 55.942L57.956 53.5214M57.956 53.5214L66.994 51.19M57.956 53.5214L59.2047 58.363M57.956 53.5214C56.8713 53.801 56.1743 53.9797 55.6323 54.082C55.112 54.1803 54.9077 54.1717 54.8137 54.1597M67.6183 53.611L68.2427 56.0317M68.2427 56.0317L59.2047 58.363M68.2427 56.0317L66.994 51.19M68.2427 56.0317C69.2633 55.7683 70.1467 55.542 70.8623 55.306C71.5967 55.064 72.327 54.7594 73.0004 54.262M71.168 41.5863L73.1227 40.028M73.1227 40.028C73.6493 40.6887 73.974 41.409 74.2307 42.1304C74.4787 42.828 74.7164 43.6873 74.989 44.667M73.1227 40.028L69.213 43.1447M73.1227 40.028C71.951 38.558 70.2407 37.6183 68.3814 37.3827M60.4477 41.5224L62.856 40.852L63.4803 43.2727M60.4477 41.5224C60.813 42.8347 62.1613 43.613 63.4803 43.2727M60.4477 41.5224L54.8473 21.4033M60.4477 41.5224L65.2647 40.1817L59.6643 20.0625L54.8473 21.4033M63.4803 43.2727C64.5487 42.9974 65.5613 42.7367 66.4187 42.5567C66.8453 42.467 67.1937 42.406 67.4624 42.3733C67.766 42.3363 67.8313 42.353 67.7527 42.343M63.4803 43.2727L62.2317 38.4313C63.269 38.1637 64.4003 37.8713 65.3913 37.6633C66.2557 37.482 67.438 37.2633 68.3814 37.3827M68.067 39.863L68.3814 37.3827M68.3814 37.3827L67.7527 42.343M71.515 52.251L73.0004 54.262M73.0004 54.262L70.0297 50.24M73.0004 54.262C74.513 53.1447 75.5267 51.475 75.7823 49.6047M73.3053 49.266L75.7823 49.6047M75.7823 49.6047L70.8287 48.927M75.7823 49.6047C75.8973 48.7647 75.802 47.9767 75.65 47.2297C75.5023 46.5053 75.2617 45.6463 74.989 44.667M51.3983 54.9163L49.4433 56.4747M49.4433 56.4747C48.9167 55.814 48.5923 55.0937 48.3357 54.3724C48.0873 53.6747 47.8497 52.8154 47.577 51.8357M49.4433 56.4747L53.3533 53.358M49.4433 56.4747C50.615 57.9447 52.3257 58.8844 54.185 59.12M54.4993 56.64L54.185 59.12M54.185 59.12L54.8137 54.1597M54.185 59.12C55.0137 59.225 55.7973 59.139 56.56 58.995C57.3017 58.855 58.184 58.6263 59.2047 58.363M49.2607 47.237L46.7837 46.898M46.7837 46.898L51.7377 47.5757M46.7837 46.898C46.669 47.7383 46.764 48.5263 46.9163 49.2733C47.064 49.9977 47.3047 50.8567 47.577 51.8357M46.7837 46.898C47.0397 45.028 48.0533 43.358 49.5657 42.241M56.702 45.0214L56.0777 42.6003L58.486 41.93M56.702 45.0214C57.352 44.8537 57.9073 44.4317 58.2427 43.85C58.5783 43.2687 58.666 42.5767 58.486 41.93M56.702 45.0214C55.6337 45.2967 54.6213 45.5584 53.7857 45.815C53.3697 45.943 53.037 46.0577 52.7887 46.158C52.506 46.2723 52.4643 46.316 52.5363 46.2627M56.702 45.0214L55.453 40.1797C54.4157 40.4473 53.284 40.7387 52.3177 41.0357C51.8323 41.1847 51.3493 41.3467 50.915 41.5224C50.515 41.684 50.007 41.915 49.5657 42.241M58.486 41.93L53.669 43.271L48.0687 23.1517L52.8857 21.8109M58.486 41.93L52.8857 21.8109M51.051 44.252L49.5657 42.241M49.5657 42.241L52.5363 46.2627M54.753 7.39122L55.3773 9.81198M55.3773 9.81198L46.3393 12.1432M55.3773 9.81198L54.1287 4.97045M55.3773 9.81198C56.462 9.53218 57.159 9.35379 57.701 9.25145C58.2213 9.15315 58.4257 9.16175 58.5197 9.17365M45.715 9.72242L45.0907 7.30165M45.0907 7.30165L54.1287 4.97045M45.0907 7.30165L46.3393 12.1432M45.0907 7.30165C44.07 7.56492 43.1867 7.79145 42.471 8.02725C41.7367 8.26935 41.0063 8.57402 40.333 9.07152M63.3477 12.168L60.9393 12.8384M60.9393 12.8384C60.6477 11.791 60.4623 11.1302 60.287 10.6368C60.1197 10.167 60.02 10.0252 59.98 9.97522M60.9393 12.8384L65.7563 11.4976M60.9393 12.8384C61.231 13.886 61.4133 14.5472 61.5177 15.0584C61.6173 15.5468 61.6023 15.7096 61.5957 15.7577M61.935 8.41692L59.98 9.97522M59.98 9.97522L63.89 6.85862M59.98 9.97522C59.641 9.54995 59.1207 9.24982 58.5197 9.17365M58.834 6.69348L59.1483 4.21332M59.1483 4.21332L58.5197 9.17365M59.1483 4.21332C58.3197 4.10832 57.536 4.19422 56.7733 4.33825C56.0317 4.47825 55.1493 4.70715 54.1287 4.97045M59.1483 4.21332C61.0077 4.44899 62.7183 5.38872 63.89 6.85862M56.6313 18.3121L57.2557 20.7329L54.8473 21.4033M56.6313 18.3121C55.9813 18.4798 55.426 18.9018 55.0907 19.4832C54.755 20.0647 54.6673 20.7566 54.8473 21.4033M56.6313 18.3121C57.6997 18.0366 58.712 17.7749 59.5477 17.5182C59.9637 17.3905 60.2963 17.2758 60.5447 17.1754C60.8273 17.0611 60.869 17.0174 60.797 17.0706M56.6313 18.3121L57.8803 23.1537C58.9177 22.8861 60.0493 22.5948 61.0157 22.2979C61.501 22.1488 61.984 21.9866 62.4183 21.8111C62.8183 21.6494 63.3263 21.4183 63.7677 21.0924M62.2823 19.0815L63.7677 21.0924M63.7677 21.0924L60.797 17.0706M63.7677 21.0924C65.28 19.9753 66.2937 18.3055 66.5497 16.4352M64.0727 16.0964L61.5957 15.7577M61.5957 15.7577L66.5497 16.4352M61.5957 15.7577C61.5277 16.2558 61.2533 16.7335 60.797 17.0706M40.7527 17.996L38.3443 18.6664M38.3443 18.6664C38.617 19.6459 38.8547 20.5053 39.1027 21.203C39.3593 21.9243 39.684 22.6446 40.2107 23.3053M38.3443 18.6664L43.161 17.3256M38.3443 18.6664C38.0717 17.6871 37.831 16.8281 37.6833 16.1038C37.5313 15.3568 37.436 14.5688 37.551 13.7287M42.1653 21.747L44.1203 20.1887M44.1203 20.1887L40.2107 23.3053M44.1203 20.1887C44.0807 20.1387 43.9807 19.997 43.8137 19.5272C43.638 19.0337 43.4527 18.373 43.161 17.3256M44.1203 20.1887C44.4593 20.614 44.98 20.9141 45.5807 20.9903M52.8857 21.8109L50.4773 22.4813L49.853 20.0605M52.8857 21.8109C52.5203 20.4987 51.172 19.7203 49.853 20.0605M49.853 20.0605C48.7847 20.3361 47.772 20.5968 46.9147 20.7767C46.488 20.8663 46.1397 20.9272 45.871 20.96C45.5673 20.9971 45.502 20.9803 45.5807 20.9903M49.853 20.0605L51.1017 24.9021C50.0643 25.1697 48.933 25.462 47.942 25.6701C47.0777 25.8515 45.8953 26.0701 44.952 25.9506M45.2663 23.4704L45.5807 20.9903M45.5807 20.9903L44.952 25.9506M40.028 14.0675L42.5047 14.4063M42.5047 14.4063C42.4983 14.4543 42.4833 14.6172 42.5827 15.1056C42.687 15.6168 42.8697 16.278 43.161 17.3256M42.5047 14.4063L37.551 13.7287M42.5047 14.4063C42.573 13.9082 42.847 13.4305 43.3037 13.0933M41.8183 11.0824L40.333 9.07152M40.333 9.07152L43.3037 13.0933M40.333 9.07152C38.8203 10.1886 37.8067 11.8584 37.551 13.7287M66.994 51.19C68.079 50.9104 68.775 50.7297 69.297 50.5574C69.7997 50.3917 69.965 50.288 70.0297 50.24M74.989 44.667L70.1724 46.0077M69.213 43.1447C69.2527 43.1947 69.3527 43.3364 69.5197 43.8064C69.6953 44.2997 69.8807 44.9604 70.1724 46.0077M69.213 43.1447C68.874 42.7194 68.3533 42.4194 67.7527 42.343M70.1724 46.0077C70.4637 47.0554 70.6464 47.7167 70.7507 48.2277C70.85 48.7163 70.835 48.879 70.8287 48.927M70.0297 50.24C70.4863 49.903 70.7603 49.4253 70.8287 48.927M47.577 51.8357L52.394 50.495M53.3533 53.358C53.3133 53.308 53.2137 53.1664 53.0463 52.6967C52.871 52.203 52.6857 51.5424 52.394 50.495M53.3533 53.358C53.6923 53.7834 54.2127 54.0837 54.8137 54.1597M52.394 50.495C52.1023 49.4474 51.92 48.7864 51.8157 48.275C51.716 47.7867 51.731 47.6237 51.7377 47.5757M51.7377 47.5757C51.8057 47.0777 52.08 46.6 52.5363 46.2627M46.3393 12.1432C45.2543 12.4231 44.5583 12.6039 44.0363 12.7759C43.5337 12.9417 43.3683 13.0455 43.3037 13.0933M65.7563 11.4976C65.4837 10.5181 65.246 9.65865 64.9977 8.96099C64.741 8.23965 64.4167 7.51935 63.89 6.85862M65.7563 11.4976C66.0287 12.4768 66.2693 13.3358 66.417 14.0601C66.5693 14.8072 66.6643 15.5951 66.5497 16.4352M40.2107 23.3053C41.3823 24.7752 43.0927 25.715 44.952 25.9506" stroke="white"/>
</svg>
