<svg width="80" height="80" viewBox="0 0 80 80" fill="none" xmlns="http://www.w3.org/2000/svg">
<path d="M69.9999 66.6667L68.5092 69.648C69.5425 70.1647 70.7695 70.1097 71.7522 69.5023C72.7348 68.8947 73.3332 67.822 73.3332 66.6667H69.9999ZM37.5338 36.8097C36.2322 38.1113 36.2322 40.222 37.5338 41.5237C38.8355 42.8253 40.9462 42.8253 42.2478 41.5237L37.5338 36.8097ZM30.206 28.3358C29.7471 30.1186 30.8204 31.9359 32.6032 32.3948C34.3862 32.8537 36.2032 31.7804 36.6622 29.9975L30.206 28.3358ZM39.8892 45.8333C38.0482 45.8333 36.5558 47.3257 36.5558 49.1667C36.5558 51.0077 38.0482 52.5 39.8892 52.5V45.8333ZM39.9225 52.5C41.7635 52.5 43.2558 51.0077 43.2558 49.1667C43.2558 47.3257 41.7635 45.8333 39.9225 45.8333V52.5ZM20.6665 16.6667H59.3332V10H20.6665V16.6667ZM13.3332 49.3333V24H6.66651V49.3333H13.3332ZM54.1485 56.6667H20.6665V63.3333H54.1485V56.6667ZM71.4905 63.6853L60.4095 58.1447L57.4282 64.1077L68.5092 69.648L71.4905 63.6853ZM54.1485 63.3333C55.1765 63.3333 55.3775 63.3407 55.5549 63.3657L56.4792 56.7633C55.7369 56.6593 54.9985 56.6667 54.1485 56.6667V63.3333ZM60.4095 58.1447C59.6492 57.7647 58.9922 57.4277 58.2815 57.1887L56.1555 63.5073C56.3255 63.5643 56.5085 63.6477 57.4282 64.1077L60.4095 58.1447ZM55.5549 63.3657C55.7592 63.394 55.9602 63.4417 56.1555 63.5073L58.2815 57.1887C57.6952 56.9913 57.0919 56.849 56.4792 56.7633L55.5549 63.3657ZM6.66651 49.3333C6.66651 51.1453 6.66391 52.7047 6.76841 53.9833C6.87608 55.3013 7.11381 56.612 7.75644 57.8733L13.6965 54.8467C13.6125 54.6817 13.4869 54.346 13.4129 53.4407C13.3358 52.496 13.3332 51.2553 13.3332 49.3333H6.66651ZM20.6665 56.6667C18.7447 56.6667 17.5037 56.664 16.5593 56.587C15.6537 56.513 15.318 56.3873 15.1532 56.3033L12.1266 62.2433C13.3879 62.886 14.6986 63.1237 16.0164 63.2313C17.2953 63.336 18.8547 63.3333 20.6665 63.3333V56.6667ZM7.75644 57.8733C8.71518 59.755 10.245 61.2847 12.1266 62.2433L15.1532 56.3033C14.526 55.9837 14.0161 55.474 13.6965 54.8467L7.75644 57.8733ZM59.3332 16.6667C61.2552 16.6667 62.4958 16.6693 63.4405 16.7464C64.3459 16.8204 64.6815 16.946 64.8465 17.03L67.8732 11.0899C66.6119 10.4473 65.3012 10.2096 63.9832 10.1019C62.7045 9.99741 61.1452 10 59.3332 10V16.6667ZM73.3332 24C73.3332 22.1882 73.3359 20.6288 73.2312 19.3499C73.1235 18.0321 72.8858 16.7214 72.2432 15.4601L66.3032 18.4867C66.3872 18.6515 66.5129 18.9872 66.5869 19.8928C66.6639 20.8372 66.6665 22.0782 66.6665 24H73.3332ZM64.8465 17.03C65.4739 17.3496 65.9835 17.8595 66.3032 18.4867L72.2432 15.4601C71.2845 13.5785 69.7548 12.0487 67.8732 11.0899L64.8465 17.03ZM20.6665 10C18.8547 10 17.2953 9.99741 16.0164 10.1019C14.6986 10.2096 13.3879 10.4473 12.1266 11.0899L15.1532 17.03C15.318 16.946 15.6537 16.8204 16.5593 16.7464C17.5037 16.6693 18.7447 16.6667 20.6665 16.6667V10ZM13.3332 24C13.3332 22.0782 13.3358 20.8372 13.4129 19.8928C13.4869 18.9872 13.6125 18.6515 13.6965 18.4867L7.75644 15.4601C7.11381 16.7214 6.87608 18.0321 6.76841 19.3499C6.66391 20.6288 6.66651 22.1882 6.66651 24H13.3332ZM12.1266 11.0899C10.245 12.0487 8.71518 13.5785 7.75644 15.4601L13.6965 18.4867C14.0161 17.8595 14.526 17.3496 15.1532 17.03L12.1266 11.0899ZM43.2242 30.8333C43.2242 31.4106 43.0725 31.8509 42.1592 32.7323C41.6469 33.2268 41.0435 33.7177 40.2072 34.4133C39.4125 35.0743 38.4808 35.8623 37.5338 36.8097L42.2478 41.5237C42.9672 40.8043 43.7022 40.1777 44.4705 39.5387C45.1962 38.935 46.0512 38.241 46.7888 37.529C48.3759 35.9977 49.8909 33.938 49.8909 30.8333H43.2242ZM39.8909 27.5C41.7315 27.5 43.2242 28.9924 43.2242 30.8333H49.8909C49.8909 25.3105 45.4135 20.8333 39.8909 20.8333V27.5ZM36.6622 29.9975C37.0325 28.5591 38.3422 27.5 39.8909 27.5V20.8333C35.2265 20.8333 31.3159 24.0235 30.206 28.3358L36.6622 29.9975ZM39.8892 52.5H39.9225V45.8333H39.8892V52.5ZM66.6665 24V66.6667H73.3332V24H66.6665Z" fill="white"/>
<path d="M68.5092 69.648L69.9999 66.6667H73.3332M68.5092 69.648C69.5425 70.1647 70.7695 70.1097 71.7522 69.5023C72.7349 68.8947 73.3332 67.822 73.3332 66.6667M68.5092 69.648L57.4282 64.1077M68.5092 69.648L71.4905 63.6853L60.4095 58.1447M73.3332 66.6667H66.6665V24M73.3332 66.6667V24M56.0172 60.0643L56.4792 56.7633M56.4792 56.7633L55.5548 63.3657M56.4792 56.7633C55.7368 56.6593 54.9985 56.6667 54.1485 56.6667M56.4792 56.7633C57.0918 56.849 57.6952 56.9913 58.2815 57.1887M58.9188 61.126L57.4282 64.1077M57.4282 64.1077L60.4095 58.1447M57.4282 64.1077C56.5085 63.6477 56.3255 63.5643 56.1555 63.5073M57.2185 60.348L56.1555 63.5073M56.1555 63.5073L58.2815 57.1887M56.1555 63.5073C55.9602 63.4417 55.7592 63.394 55.5548 63.3657M10.7265 56.36L13.6965 54.8467M13.6965 54.8467L7.75644 57.8733M13.6965 54.8467C13.6125 54.6817 13.4869 54.346 13.4129 53.4407C13.3358 52.496 13.3332 51.2553 13.3332 49.3333M13.6965 54.8467C14.0161 55.474 14.526 55.9837 15.1532 56.3033M13.6399 59.2733L15.1532 56.3033M15.1532 56.3033C15.318 56.3873 15.6537 56.513 16.5593 56.587C17.5037 56.664 18.7447 56.6667 20.6665 56.6667M15.1532 56.3033L12.1266 62.2433M66.3599 14.06L64.8465 17.03M64.8465 17.03C64.6815 16.946 64.3459 16.8204 63.4405 16.7464C62.4958 16.6693 61.2552 16.6667 59.3332 16.6667M64.8465 17.03L67.8732 11.0899M64.8465 17.03C65.4739 17.3496 65.9835 17.8595 66.3032 18.4867M69.2732 16.9734L66.3032 18.4867M66.3032 18.4867L72.2432 15.4601M66.3032 18.4867C66.3872 18.6515 66.5129 18.9872 66.5869 19.8928C66.6639 20.8372 66.6665 22.0782 66.6665 24M13.6399 14.06L15.1532 17.03M15.1532 17.03L12.1266 11.0899M15.1532 17.03C15.318 16.946 15.6537 16.8204 16.5593 16.7464C17.5037 16.6693 18.7447 16.6667 20.6665 16.6667M15.1532 17.03C14.526 17.3496 14.0161 17.8595 13.6965 18.4867M10.7265 16.9734L13.6965 18.4867M13.6965 18.4867C13.6125 18.6515 13.4869 18.9872 13.4129 19.8928C13.3358 20.8372 13.3332 22.0782 13.3332 24M13.6965 18.4867L7.75644 15.4601M37.5338 36.8097C36.2322 38.1113 36.2322 40.222 37.5338 41.5237C38.8355 42.8253 40.9462 42.8253 42.2478 41.5237M37.5338 36.8097L42.2478 41.5237M37.5338 36.8097C38.4808 35.8623 39.4125 35.0743 40.2072 34.4133C41.0435 33.7177 41.6468 33.2268 42.1592 32.7323C43.0725 31.8509 43.2242 31.4106 43.2242 30.8333M42.2478 41.5237C42.9672 40.8043 43.7022 40.1777 44.4705 39.5387C45.1962 38.935 46.0512 38.241 46.7888 37.529C48.3758 35.9977 49.8909 33.938 49.8909 30.8333M30.206 28.3358C29.7471 30.1186 30.8204 31.9359 32.6032 32.3948C34.3862 32.8537 36.2032 31.7804 36.6622 29.9975M30.206 28.3358L36.6622 29.9975M30.206 28.3358C31.3159 24.0235 35.2265 20.8333 39.8908 20.8333M36.6622 29.9975C37.0325 28.5591 38.3422 27.5 39.8908 27.5M39.8892 45.8333C38.0482 45.8333 36.5558 47.3257 36.5558 49.1667C36.5558 51.0077 38.0482 52.5 39.8892 52.5M39.8892 45.8333V52.5M39.8892 45.8333H39.9225M39.8892 52.5H39.9225M39.9225 52.5C41.7635 52.5 43.2558 51.0077 43.2558 49.1667C43.2558 47.3257 41.7635 45.8333 39.9225 45.8333M39.9225 52.5V45.8333M20.6665 16.6667H59.3332M20.6665 16.6667V10M59.3332 16.6667V10M59.3332 10H20.6665M59.3332 10C61.1452 10 62.7045 9.99741 63.9832 10.1019C65.3012 10.2096 66.6118 10.4473 67.8732 11.0899M20.6665 10C18.8547 10 17.2953 9.99741 16.0164 10.1019C14.6986 10.2096 13.3879 10.4473 12.1266 11.0899M13.3332 49.3333V24M13.3332 49.3333H6.66651M13.3332 24H6.66651M6.66651 24V49.3333M6.66651 24C6.66651 22.1882 6.66391 20.6288 6.76841 19.3499C6.87608 18.0321 7.11381 16.7214 7.75644 15.4601M6.66651 49.3333C6.66651 51.1453 6.66391 52.7047 6.76841 53.9833C6.87608 55.3013 7.11381 56.612 7.75644 57.8733M54.1485 56.6667H20.6665M54.1485 56.6667V63.3333M20.6665 56.6667V63.3333M20.6665 63.3333H54.1485M20.6665 63.3333C18.8547 63.3333 17.2953 63.336 16.0164 63.2313C14.6986 63.1237 13.3879 62.886 12.1266 62.2433M54.1485 63.3333C55.1765 63.3333 55.3775 63.3407 55.5548 63.3657M60.4095 58.1447C59.6492 57.7647 58.9922 57.4277 58.2815 57.1887M7.75644 57.8733C8.71518 59.755 10.245 61.2847 12.1266 62.2433M67.8732 11.0899C69.7548 12.0487 71.2845 13.5785 72.2432 15.4601M73.3332 24C73.3332 22.1882 73.3359 20.6288 73.2312 19.3499C73.1235 18.0321 72.8859 16.7214 72.2432 15.4601M73.3332 24H66.6665M12.1266 11.0899C10.245 12.0487 8.71518 13.5785 7.75644 15.4601M43.2242 30.8333H49.8909M43.2242 30.8333C43.2242 28.9924 41.7315 27.5 39.8908 27.5M49.8909 30.8333C49.8909 25.3105 45.4135 20.8333 39.8908 20.8333M39.8908 27.5V20.8333" stroke="white"/>
</svg>
