<svg width="80" height="80" viewBox="0 0 80 80" fill="none" xmlns="http://www.w3.org/2000/svg">
<g clip-path="url(#clip0_26_634)">
<path d="M39.9999 45.1181C45.5194 45.1181 58.4965 38.4755 58.4965 22.5588C58.4968 10.0999 56.8149 0 39.9999 0C23.185 0 21.5032 10.0999 21.5032 22.5591C21.5032 38.4755 34.4803 45.1181 39.9999 45.1181ZM24.2676 18.7941C25.5669 16.2813 28.3774 13.3775 34.4215 13.5063C34.4215 13.5063 38.024 22.2447 55.7104 18.3205C55.7817 19.7164 55.8042 21.1406 55.8042 22.5591C55.8042 30.339 52.3689 35.1596 49.4868 37.8335C45.8555 41.2029 41.8238 42.4257 39.9999 42.4257C38.176 42.4257 34.1442 41.2029 30.5129 37.8335C27.6308 35.1596 24.1956 30.339 24.1956 22.5591C24.1958 21.3005 24.2141 20.0376 24.2676 18.7941Z" fill="white" stroke="white" stroke-width="0.571973"/>
<path d="M74.3396 68.2539C73.3953 62.3821 71.4511 54.8185 67.5518 52.1307C64.8892 50.2949 55.5992 45.3316 51.6322 43.2121L51.5636 43.1755C51.1101 42.9332 50.5565 42.9817 50.152 43.2992C48.0739 44.9307 45.7974 46.0303 43.386 46.5672C42.96 46.6622 42.6104 46.9649 42.4555 47.3728L39.9999 53.8455L37.5443 47.3728C37.3894 46.9649 37.0398 46.6622 36.6138 46.5672C34.2024 46.0303 31.9259 44.9307 29.8479 43.2992C29.4434 42.9817 28.8897 42.9329 28.4362 43.1755C24.5164 45.27 15.1127 50.3345 12.4596 52.1227C7.97103 55.1466 6.00825 66.0907 5.66049 68.2539C5.62595 68.4685 5.64608 68.688 5.71838 68.8927C5.87899 69.3462 9.99856 80 39.9999 80C70.0013 80 74.1208 69.3462 74.2814 68.8927C74.354 68.688 74.3741 68.4683 74.3396 68.2539ZM60.5147 64.6709L54.6424 66.5012L48.7701 64.6709V61.5113H60.5147V64.6709Z" fill="white" stroke="white" stroke-width="0.571973"/>
</g>
<defs>
<clipPath id="clip0_26_634">
<rect width="80" height="80" fill="white"/>
</clipPath>
</defs>
</svg>
