<svg width="150" height="152" viewBox="0 0 150 152" fill="none" xmlns="http://www.w3.org/2000/svg">
<path d="M143.466 121.19C142.998 122.109 143.406 124.639 144.692 128.688C144.74 128.839 144.765 128.996 144.772 129.158C144.803 129.7 144.997 134.382 143.372 137.649C143.295 138.619 142.963 140.688 141.556 142.091C140.818 142.818 139.89 143.263 138.85 143.393C138.039 144.117 136.681 144.791 134.807 144.662C134.065 144.989 132.766 145.34 131.02 144.928C130.264 145.057 128.878 145.147 127.104 144.555C126.23 144.691 125.156 144.555 124.283 143.823C123.316 143.005 122.838 141.685 122.866 139.899C122.651 139.748 122.451 139.554 122.263 139.343C121.127 138.001 120.822 135.884 121.338 132.868C121.376 132.645 121.445 132.448 121.556 132.258C121.702 132.003 124.99 126.253 129.117 123.423C129.453 120.416 129.744 116.302 129.478 115.089C128.403 110.196 127.326 103.362 129.408 97.8697C126.823 96.8794 122.374 95.0072 120.278 93.063C118.347 91.2833 116.872 89.8488 115.569 88.3276C114.429 92.5641 110.728 98.4724 101.32 106.182C101.632 110.375 102.516 126.335 98.9367 135.698C98.5799 136.645 97.5436 137.108 96.6428 136.732C95.7283 136.362 95.2811 135.294 95.6487 134.353C99.3834 124.556 97.7343 105.709 97.7138 105.523C97.6546 104.898 97.9152 104.282 98.3898 103.905C113.719 91.5572 112.801 85.197 112.143 83.5433C112.084 83.4002 112.077 83.2564 112.06 83.1132C109.288 89.0075 102.828 93.1467 95.3306 93.1467C85.3026 93.1467 77.1372 85.739 77.1372 76.6411V69.0672C77.1372 68.0533 77.9339 67.2303 78.9126 67.2303C79.8863 67.2303 80.687 68.0533 80.687 69.0672V76.6411C80.687 83.7153 87.2568 89.4729 95.33 89.4729C103.4 89.4729 109.973 83.7224 109.973 76.6411C109.973 75.6295 110.77 74.8048 111.747 74.8048C112.724 74.8048 113.521 75.6295 113.521 76.6411C113.521 78.3419 113.151 79.9526 112.624 81.502C112.728 81.4054 112.835 81.2911 112.967 81.2221C113.782 80.7844 114.776 81.0572 115.279 81.8466C117.409 85.2583 119.194 87.1411 122.642 90.3236C124.631 92.1599 130.379 94.3774 132.43 95.0731C132.947 95.2522 133.349 95.654 133.535 96.1778C133.726 96.6944 133.674 97.2824 133.397 97.7566C130.75 102.362 131.866 109.386 132.933 114.265C133.477 116.704 132.705 123.427 132.545 124.747C132.475 125.328 132.143 125.837 131.644 126.124C128.459 127.954 125.504 132.64 124.783 133.834C124.412 136.302 124.928 136.904 124.935 136.912C125.442 136.858 125.837 137.076 126.19 137.482C126.554 137.891 126.564 138.411 126.495 138.953C126.28 140.546 126.567 140.998 126.567 140.998C126.962 140.858 127.44 140.772 127.846 140.926C129.482 141.572 130.486 141.292 130.535 141.278C130.851 141.195 131.232 141.174 131.547 141.271C132.815 141.647 133.491 141.263 133.518 141.234C133.868 141.026 134.367 140.89 134.745 140.962C136.089 141.141 136.578 140.589 136.623 140.532C136.963 139.982 137.531 139.721 138.134 139.757C138.66 139.75 138.948 139.599 139.104 139.442C139.721 138.824 139.859 137.44 139.859 137.131C139.859 136.801 139.939 136.478 140.098 136.198C141.159 134.34 141.283 130.989 141.235 129.583C140.112 125.974 139.055 121.963 140.334 119.467C142.822 114.61 146.177 99.5788 146.211 99.428C147.722 89.0817 143.05 82.0941 139.966 77.4664C135.483 70.7586 126.979 66.6259 126.892 66.5846C126.376 66.3354 125.999 65.8418 125.895 65.2662C123.826 54.1169 114.255 51.3404 109.539 51.5124C98.6209 51.7404 86.1255 45.0249 85.5991 44.7398C85.0175 44.4222 84.6499 43.7948 84.6499 43.1149C84.6499 35.0309 86.0566 30.6401 86.1152 30.4569C86.1642 30.3208 86.2194 30.1936 86.2956 30.0752C88.8769 25.7851 88.7557 23.8964 88.5889 23.2825C88.4888 22.9078 88.305 22.8018 88.2702 22.7841C87.4349 22.5149 87.0121 21.6919 87.1441 20.7928C89.0601 7.5239 79.8431 5.08785 79.4345 4.98947C79.4271 4.98947 76.9534 4.53407 75.2194 4.6843C75.1221 4.69137 74.9213 4.69137 74.8239 4.6843C73.0656 4.52995 70.5566 4.99595 70.5276 5.00361C70.2157 5.08078 60.9896 7.51271 62.913 20.7875C63.0444 21.6877 62.5198 22.549 61.6793 22.8159C61.714 22.8088 61.5723 22.8931 61.459 23.2784C61.2877 23.8923 61.1751 25.781 63.7512 30.0675C63.8257 30.1877 63.8809 30.3167 63.9282 30.4493C63.9885 30.6325 65.3935 35.0268 65.3935 43.1067C65.3935 43.7901 65.0248 44.4146 64.4426 44.7297C63.9179 45.0166 51.2461 51.7251 40.5057 51.5047C35.7017 51.3398 26.2246 54.1051 24.1589 65.2585C24.057 65.82 23.7014 66.3007 23.208 66.5552C23.1266 66.5982 14.8696 70.9189 10.4565 77.513L9.98706 78.2052C6.78326 82.9754 2.39467 89.5006 3.85204 99.5594C3.86569 99.5664 7.22713 114.597 9.71505 119.455C10.9818 121.937 9.93528 125.951 8.80513 129.571C8.76358 130.977 8.8865 134.327 9.94893 136.179C10.1117 136.465 10.1965 136.789 10.1965 137.123C10.1965 137.521 10.349 138.844 10.9522 139.44C11.1115 139.591 11.3818 139.734 11.9139 139.749C12.553 139.702 13.1488 140.05 13.4799 140.599C13.4868 140.599 13.9978 141.148 15.289 140.954C15.7499 140.875 16.2006 140.997 16.5694 141.27C16.5625 141.27 16.5625 141.27 16.5625 141.27C16.5853 141.27 17.2517 141.628 18.4956 141.262C18.8405 141.161 19.2092 141.169 19.5507 141.291C19.5575 141.291 20.5607 141.564 22.1894 140.921C22.5877 140.763 23.0208 140.763 23.4248 140.907C23.496 141.072 23.7503 140.495 23.5426 138.949C23.4681 138.414 23.6308 137.858 23.9859 137.46C24.3359 137.066 24.8571 136.893 25.3408 136.858C25.1815 136.808 25.5918 136.126 25.2561 133.83C24.5351 132.64 21.5759 127.947 18.4 126.124C17.9061 125.837 17.5772 125.328 17.5026 124.747C17.3399 123.427 16.562 116.711 17.0975 114.265C18.1735 109.393 19.294 102.384 16.6365 97.7566C16.3645 97.2824 16.311 96.6944 16.4977 96.1778C16.69 95.654 17.0935 95.2522 17.6045 95.0731C19.6559 94.3768 25.4148 92.1528 27.3917 90.3236C30.8516 87.1452 32.6362 85.2653 34.7565 81.8466C35.2607 81.0501 36.2622 80.7809 37.064 81.2151C37.2234 81.2981 37.3469 81.4266 37.4709 81.5485C36.932 79.9885 36.5564 78.3637 36.5564 76.6411C36.5564 75.6295 37.3503 74.8048 38.3308 74.8048C39.3061 74.8048 40.1051 75.6295 40.1051 76.6411C40.1051 83.7153 46.6766 89.4764 54.7487 89.4764C62.8208 89.4764 69.3923 83.7224 69.3923 76.6411V69.0672C69.3923 68.0533 70.1873 67.2303 71.166 67.2303C72.1414 67.2303 72.9404 68.0533 72.9404 69.0672V76.6411C72.9404 85.7461 64.7744 93.1496 54.7487 93.1496C47.2189 93.1496 40.7464 88.9745 37.9831 83.0484C37.962 83.2134 37.9432 83.3784 37.888 83.5398C37.3338 84.9566 36.8051 89.0682 43.6816 96.5725C48.777 96.156 53.9935 97.8786 57.6788 101.559C63.1395 96.1059 71.9826 94.8434 78.7311 98.6745C84.4376 101.953 87.9863 108.166 87.9863 114.91C87.9863 116.848 87.6887 118.771 87.0991 120.629C84.251 133.923 59.6733 150.041 58.6268 150.719C58.3389 150.905 58.0134 150.999 57.6788 150.999C57.3527 150.999 57.0238 150.913 56.7364 150.719C56.2356 150.396 44.4772 142.705 36.1279 133.579C35.461 132.839 35.4855 131.677 36.2025 130.982C36.911 130.285 38.0405 130.314 38.7115 131.054C45.4144 138.385 54.7202 144.958 57.6793 146.977C62.1891 143.902 81.3994 130.271 83.6831 119.653C84.1992 117.996 84.4382 116.46 84.4382 114.91C84.4382 109.5 81.5975 104.514 77.0143 101.888C74.8956 100.69 72.5045 100.051 70.0911 100.051C65.8083 100.051 61.7817 102.01 59.0496 105.425C58.7116 105.841 58.2165 106.092 57.6793 106.092C57.1575 106.092 56.6556 105.852 56.3142 105.432C52.0314 100.094 44.2439 98.5449 38.3319 101.895C33.7612 104.521 30.9148 109.507 30.9148 114.91C30.9148 116.46 31.1538 117.995 31.6284 119.488C31.926 120.844 32.4945 122.2 33.2502 123.613H41.6461L44.373 118.885C44.6934 118.347 45.2528 118.01 45.8645 117.996C46.6407 117.967 47.0567 118.297 47.389 118.832L51.5904 125.515L56.4832 111.807C56.7398 111.083 57.4068 110.609 58.1482 110.602C58.8897 110.602 59.5533 111.083 59.815 111.8L64.0665 123.617H71.4785C72.4572 123.617 73.2528 124.439 73.2528 125.453C73.2528 126.461 72.4578 127.29 71.4785 127.29H62.831C62.0895 127.29 61.426 126.81 61.1643 126.095L58.1517 117.723L53.68 130.228C53.4529 130.875 52.8776 131.341 52.2192 131.416C52.1481 131.424 52.0878 131.424 52.0166 131.424C51.4208 131.424 50.8592 131.115 50.5302 130.588L45.9596 123.302L44.1784 126.394C43.8546 126.947 43.2776 127.29 42.6522 127.29H27.8874C26.9086 127.29 26.1131 126.462 26.1131 125.454C26.1131 124.439 26.908 123.618 27.8874 123.618H29.2645C28.7933 122.527 28.4274 121.465 28.2078 120.464C27.6637 118.778 27.3661 116.855 27.3661 114.914C27.3661 108.177 30.9142 101.961 36.6128 98.6851C37.5796 98.136 38.6068 97.7166 39.6396 97.3755C36.7101 93.846 35.1053 90.8397 34.435 88.3718C33.1318 89.8788 31.6716 91.3057 29.7522 93.0778C27.6507 95.0119 23.208 96.8877 20.6216 97.878C22.7232 103.38 21.63 110.211 20.5471 115.089C20.2853 116.295 20.5835 120.42 20.9158 123.434C25.0324 126.268 28.3244 132 28.4695 132.258C28.5765 132.452 28.655 132.657 28.6898 132.876C29.2076 135.896 28.9032 138.009 27.7576 139.347C27.5687 139.569 27.373 139.749 27.1618 139.906C27.1863 141.697 26.7026 143.02 25.738 143.827C24.8663 144.559 23.7907 144.688 22.9246 144.559C21.1435 145.147 19.7521 145.054 19.0072 144.929C18.4438 145.061 17.9192 145.115 17.4531 145.115C16.4743 145.115 15.7084 144.885 15.2076 144.662C13.3297 144.799 11.985 144.117 11.169 143.399C10.1259 143.27 9.20461 142.826 8.46312 142.094C7.05811 140.688 6.7309 138.628 6.65237 137.652C5.0169 134.381 5.2229 129.703 5.24737 129.158C5.2542 129 5.2872 128.842 5.32533 128.691C5.80846 127.185 7.25159 122.571 6.54994 121.201C3.84179 115.921 0.482636 100.908 0.340371 100.266C-1.35941 88.6287 3.69611 81.1096 7.04503 76.1303L7.50767 75.4416C11.6624 69.2393 18.511 65.017 20.8174 63.7091C23.6581 50.8796 34.8037 47.719 40.5592 47.8521C48.9653 48.1467 58.7304 43.5297 61.7914 41.9974C61.6929 36.1414 60.8092 32.6326 60.5753 31.8225C58.0475 27.5678 57.2469 24.3217 58.1255 21.9034C58.3884 21.1805 58.7856 20.6143 59.2186 20.1925C57.5382 4.47634 69.6506 1.45116 69.7855 1.4223C69.9813 1.38106 72.8448 0.859089 75.08 1.03877C77.0951 0.852019 79.9956 1.38459 80.1196 1.40992C80.3137 1.4547 92.4415 4.47693 90.7576 20.2002C91.1872 20.6179 91.5782 21.1882 91.8456 21.9039C92.7186 24.3253 91.9179 27.5684 89.389 31.8266C89.1671 32.6373 88.2799 36.1455 88.1724 41.9985C91.243 43.5309 100.944 48.1255 109.413 47.8568C114.919 47.7207 126.309 50.8808 129.154 63.6861C131.555 64.961 138.613 69.0725 142.761 75.2855C146.243 80.494 151.396 88.2068 149.646 100.131C149.529 100.898 146.175 115.91 143.466 121.19ZM98.8804 83.3589C98.8804 81.8991 97.761 80.712 96.3719 80.712C94.9891 80.712 93.8806 81.892 93.8806 83.3589C93.8806 84.8264 94.9891 86.01 96.3719 86.01C97.7502 86.01 98.8804 84.8264 98.8804 83.3589ZM51.2319 83.3589C51.2319 84.8194 52.3427 86.01 53.7335 86.01C55.114 86.01 56.2248 84.8264 56.2248 83.3589C56.2248 81.8991 55.114 80.712 53.7335 80.712C52.3495 80.712 51.2319 81.892 51.2319 83.3589ZM14.2596 86.1208C14.1679 87.1329 14.885 88.0254 15.8569 88.1226C15.9172 88.1226 15.9662 88.1297 16.0299 88.1297C16.9307 88.1297 17.7052 87.4233 17.7906 86.4689C17.8406 85.9564 19.1142 73.9222 33.0089 72.721C33.9775 72.6368 34.7087 71.7472 34.6239 70.7368C34.5494 69.7235 33.6622 68.9417 32.7113 69.0578C15.9019 70.5088 14.2766 85.9635 14.2596 86.1208ZM132.273 86.8389C132.342 87.8074 133.118 88.5391 134.037 88.5391C134.089 88.5391 134.127 88.5391 134.168 88.5391C135.146 88.4637 135.881 87.5812 135.811 86.5732C134.577 69.155 119.664 67.3434 119.511 67.3258C118.554 67.2003 117.668 67.9461 117.564 68.9524C117.463 69.9586 118.167 70.8629 119.133 70.976C119.629 71.0273 131.265 72.5455 132.273 86.8389Z" fill="white" stroke="white"/>
</svg>
